Coordinates
version=1
nRows=21
nColumns=12
inDegrees=yes

Units are S.I. units (second, meters, Newtons, ...)
Angles are in degrees

endheader
time	SC_y	SC_z	SC_x	AC_y	AC_z	AC_x	GH_y	GH_z	GH_yy	EL_x	PS_y
       0.0              -30.79          34.14          80.49          45.09         -8.288         -18.25          170.6           77.4         -134.1          108.9          135.5
   0.03053              -30.79          34.15          80.49          45.09         -8.289         -18.24          170.6           77.4         -134.1          108.8          135.5
   0.06105              -30.79          34.15          80.49           45.1          -8.29         -18.24          170.5          77.39         -134.1          108.8          135.5
   0.09158              -30.79          34.15          80.49           45.1          -8.29         -18.24          170.5          77.39         -134.1          108.8          135.5
    0.1221              -30.79          34.15          80.49           45.1         -8.291         -18.24          170.5          77.38         -134.1          108.8          135.5
    0.1526              -30.78          34.15          80.49          45.11         -8.292         -18.24          170.5          77.38         -134.1          108.8          135.5
    0.1832              -30.78          34.15          80.49          45.11         -8.293         -18.24          170.4          77.37         -134.1          108.8          135.5
    0.2137              -30.78          34.15          80.49          45.11         -8.294         -18.23          170.4          77.37         -134.1          108.8          135.5
    0.2442              -30.78          34.15          80.49          45.12         -8.295         -18.23          170.4          77.36         -134.1          108.8          135.5
    0.2747              -30.78          34.15          80.49          45.12         -8.297         -18.23          170.3          77.35         -134.1          108.8          135.5
    0.3053              -30.77          34.15          80.49          45.13         -8.298         -18.23          170.3          77.35         -134.0          108.8          135.5
    0.3358              -30.77          34.15          80.49          45.13         -8.299         -18.22          170.2          77.34         -134.0          108.8          135.5
    0.3663              -30.77          34.16          80.49          45.14         -8.301         -18.22          170.2          77.33         -134.0          108.8          135.5
    0.3968              -30.76          34.16          80.48          45.15         -8.302         -18.22          170.1          77.32         -134.0          108.7          135.4
    0.4274              -30.76          34.16          80.48          45.15         -8.304         -18.22          170.1          77.31         -134.0          108.7          135.4
    0.4579              -30.76          34.16          80.48          45.16         -8.306         -18.21          170.0           77.3         -134.0          108.7          135.4
    0.4884              -30.75          34.16          80.48          45.17         -8.308         -18.21          170.0          77.29         -134.0          108.7          135.4
    0.5189              -30.75          34.16          80.48          45.18          -8.31          -18.2          169.9          77.28         -133.9          108.7          135.4
    0.5495              -30.74          34.17          80.48          45.19         -8.313          -18.2          169.8          77.27         -133.9          108.7          135.4
      0.58              -30.74          34.17          80.48           45.2         -8.316         -18.19          169.7          77.25         -133.9          108.7          135.4
    0.6105              -30.73          34.17          80.48          45.21         -8.319         -18.19          169.6          77.23         -133.9          108.6          135.3
